<svg height="512" viewBox="0 0 64 64" width="512" xmlns="http://www.w3.org/2000/svg"><g id="virus-covid19-corona-cell-coronavirus"><circle cx="22" cy="42" fill="#006838" r="11"/><path d="m22 31a11.078 11.078 0 0 0 -1.5.114 10.987 10.987 0 0 1 0 21.772 10.995 10.995 0 1 0 1.5-21.886z" fill="#005e32"/><g fill="#ab2300"><circle cx="46.95" cy="5.05" r="2"/><path d="m35.626 12.8a2 2 0 1 0 -.732-2.732 2 2 0 0 0 .732 2.732z"/><path d="m35.676 21.286a2 2 0 1 0 2.732.732 2 2 0 0 0 -2.732-.732z"/><circle cx="47.05" cy="28.95" r="2"/><path d="m56.374 24.663a2 2 0 1 0 -.732-2.732 2 2 0 0 0 .732 2.732z"/><path d="m58.324 12.714a2 2 0 1 0 -2.732-.732 2 2 0 0 0 2.732.732z"/><path d="m47.657 14.929a1 1 0 1 0 -1.414 0 1 1 0 0 0 1.414 0z"/><path d="m44.828 19.172a1 1 0 1 0 -1.414 0 1 1 0 0 0 1.414 0z"/><path d="m50.485 19.172a1 1 0 1 0 -1.414 0 1 1 0 0 0 1.414 0z"/><circle cx="22" cy="59" r="2"/><circle cx="34.021" cy="54.021" r="2"/><circle cx="39" cy="42" r="2"/><path d="m35.435 31.393a2 2 0 1 0 -2.828 0 2 2 0 0 0 2.828 0z"/><circle cx="22" cy="25" r="2"/><path d="m11.393 28.565a2 2 0 1 0 0 2.828 2 2 0 0 0 0-2.828z"/><circle cx="5" cy="42" r="2"/><circle cx="9.979" cy="54.021" r="2"/><circle cx="20" cy="37" r="2"/><circle cx="17.804" cy="45" r="2"/><circle cx="27.196" cy="43" r="2"/><circle cx="52" cy="44" r="1"/><path d="m47.05 45.636a1 1 0 1 0 0 1.414 1 1 0 0 0 0-1.414z"/><circle cx="44" cy="52" r="1"/><path d="m45.636 56.95a1 1 0 1 0 1.414 0 1 1 0 0 0 -1.414 0z"/><circle cx="52" cy="60" r="1"/><path d="m56.95 58.364a1 1 0 1 0 0-1.414 1 1 0 0 0 0 1.414z"/><circle cx="60" cy="52" r="1"/><path d="m58.364 47.05a1 1 0 1 0 -1.414 0 1 1 0 0 0 1.414 0z"/><circle cx="14" cy="11" r="3"/><circle cx="14" cy="4" r="1"/><path d="m7.438 8.366a1 1 0 1 0 -.366-1.366 1 1 0 0 0 .366 1.366z"/><path d="m8.438 15.366a1 1 0 1 0 -1.366-.366 1 1 0 0 0 1.366.366z"/><circle cx="14" cy="18" r="1"/><path d="m19.562 15.366a1 1 0 1 0 -.362-1.366 1 1 0 0 0 .362 1.366z"/><path d="m20.562 8.366a1 1 0 1 0 -1.362-.366 1 1 0 0 0 1.362.366z"/></g><circle cx="47" cy="17" fill="#006838" r="7"/><path d="m47 10a7 7 0 0 0 -1.5.165 7 7 0 0 1 0 13.67 7 7 0 1 0 1.5-13.835z" fill="#005e32"/><circle cx="52" cy="52" fill="#ab2300" r="4"/><path d="m52 48a3.977 3.977 0 0 0 -1 .141 3.982 3.982 0 0 1 0 7.718 3.994 3.994 0 1 0 1-7.859z" fill="#9a2000"/><path d="m35.126 13.666a2.994 2.994 0 0 0 3.477-.359l1 .58a8.041 8.041 0 0 0 -.036 6.247l-1 .575a3.005 3.005 0 1 0 1.033 1.716l.969-.559a8.119 8.119 0 0 0 .721.841 7.936 7.936 0 0 0 4.71 2.282v1.16a3.006 3.006 0 1 0 2-.031v-1.144a7.829 7.829 0 0 0 5.357-3.149l1.067.616a3.005 3.005 0 1 0 .973-1.748l-1.048-.605a8.039 8.039 0 0 0 -.037-6.155l1.112-.642a3.005 3.005 0 1 0 -1.024-1.716l-1.092.63a7.824 7.824 0 0 0 -.7-.811 7.928 7.928 0 0 0 -4.608-2.267v-1.276a3.008 3.008 0 1 0 -2 .03v1.231a7.93 7.93 0 0 0 -4.707 2.282 8.052 8.052 0 0 0 -.669.77l-1.048-.605a3 3 0 1 0 -4.45 2.107zm2.05 10.218a1 1 0 1 1 .366-1.366 1 1 0 0 1 -.366 1.366zm19.332-1.452a1 1 0 1 1 .366 1.366 1 1 0 0 1 -.366-1.366zm.316-12.316a1 1 0 1 1 -.366 1.366 1 1 0 0 1 .366-1.366zm-9.774 19.834a1 1 0 1 1 1-1 1 1 0 0 1 -1 1zm-.1-25.9a1 1 0 1 1 -1 1 1 1 0 0 1 1-1zm0 7a6 6 0 1 1 -4.243 1.758 5.954 5.954 0 0 1 4.243-1.758zm-11.19-.482a1 1 0 1 1 .366 1.366 1 1 0 0 1 -.366-1.366z" fill="#231f20"/><path d="m39 39a3 3 0 0 0 -2.816 2h-2.235a11.941 11.941 0 0 0 -2.794-6.741l1.58-1.58a2.994 2.994 0 0 0 3.408-4.821 3.073 3.073 0 0 0 -4.244 0 3 3 0 0 0 -.576 3.405l-1.582 1.582a11.941 11.941 0 0 0 -6.741-2.794v-2.235a3 3 0 1 0 -2 0v2.235a11.941 11.941 0 0 0 -6.741 2.794l-1.582-1.582a2.995 2.995 0 1 0 -4.819.838 2.962 2.962 0 0 0 3.405.576l1.582 1.582a11.941 11.941 0 0 0 -2.794 6.741h-2.235a3 3 0 1 0 0 2h2.235a11.941 11.941 0 0 0 2.794 6.741l-1.582 1.582a2.992 2.992 0 1 0 .838 4.819 3 3 0 0 0 .576-3.405l1.582-1.582a11.941 11.941 0 0 0 6.741 2.794v2.235a3 3 0 1 0 2 0v-2.235a11.941 11.941 0 0 0 6.741-2.794l1.582 1.582a2.995 2.995 0 1 0 4.819-.838 3.079 3.079 0 0 0 -3.4-.568l-1.59-1.59a11.941 11.941 0 0 0 2.797-6.741h2.235a2.995 2.995 0 1 0 2.816-4zm-5.687-9.728a1.026 1.026 0 0 1 1.415 0 1 1 0 0 1 0 1.415 1.028 1.028 0 0 1 -1.415 0 1 1 0 0 1 0-1.415zm-11.313-5.272a1 1 0 1 1 -1 1 1 1 0 0 1 1-1zm-12.728 6.687a1 1 0 1 1 1.415 0 1 1 0 0 1 -1.415 0zm-4.272 12.313a1 1 0 1 1 1-1 1 1 0 0 1 -1 1zm5.687 11.728a1 1 0 1 1 0-1.415 1 1 0 0 1 0 1.415zm11.313 5.272a1 1 0 1 1 1-1 1 1 0 0 1 -1 1zm12.728-6.687a1 1 0 0 1 0 1.416 1.025 1.025 0 0 1 -1.414 0 1 1 0 0 1 1.415-1.415zm-12.728-1.313a10 10 0 1 1 10-10 10.011 10.011 0 0 1 -10 10zm17-9a1 1 0 1 1 1-1 1 1 0 0 1 -1 1z" fill="#231f20"/><path d="m20 34a3 3 0 1 0 3 3 3 3 0 0 0 -3-3zm0 4a1 1 0 1 1 1-1 1 1 0 0 1 -1 1z" fill="#231f20"/><path d="m60 50a1.993 1.993 0 0 0 -1.722 1h-1.378a4.961 4.961 0 0 0 -.732-1.753l.98-.979a2 2 0 1 0 -1.415-1.414l-.979.979a4.969 4.969 0 0 0 -1.754-.733v-1.378a2 2 0 1 0 -2 0v1.378a4.969 4.969 0 0 0 -1.753.732l-.979-.979a2 2 0 1 0 -1.415 1.414l.98.979a4.961 4.961 0 0 0 -.733 1.754h-1.378a2 2 0 1 0 0 2h1.378a4.961 4.961 0 0 0 .732 1.753l-.98.979a2 2 0 1 0 1.415 1.414l.979-.979a4.969 4.969 0 0 0 1.754.733v1.379a2 2 0 1 0 2 0v-1.379a4.969 4.969 0 0 0 1.753-.732l.979.979a2 2 0 1 0 1.415-1.414l-.98-.979a4.961 4.961 0 0 0 .733-1.754h1.379a2 2 0 1 0 1.721-3zm-8 5a3 3 0 1 1 3-3 3 3 0 0 1 -3 3z" fill="#231f20"/><path d="m6.938 9.232a1.987 1.987 0 0 0 1 .269 1.9 1.9 0 0 0 1-.273l1.231.711a3.958 3.958 0 0 0 -.169 1.061 3.958 3.958 0 0 0 .161 1.061l-1.231.711a2.038 2.038 0 0 0 -.474-.2 1.989 1.989 0 0 0 -1.518.2 2 2 0 1 0 2.991 1.737l1.222-.7a3.991 3.991 0 0 0 1.849 1.049v1.42a2 2 0 1 0 2 0v-1.42a3.991 3.991 0 0 0 1.849-1.058l1.222.705a1.994 1.994 0 0 0 .991 1.727 1.979 1.979 0 0 0 1 .268 2 2 0 1 0 -.988-3.728l-1.231-.711a3.958 3.958 0 0 0 .157-1.061 3.958 3.958 0 0 0 -.161-1.061l1.231-.711a1.9 1.9 0 0 0 1 .273 1.987 1.987 0 0 0 1-.269 2 2 0 1 0 -2.999-1.732l-1.222.7a3.991 3.991 0 0 0 -1.849-1.058v-1.42a2 2 0 1 0 -2 0v1.42a3.991 3.991 0 0 0 -1.849 1.058l-1.222-.7a1.994 1.994 0 0 0 -.991-1.727 2 2 0 0 0 -2 3.464zm7.062-.232a2 2 0 1 1 -2 2 2 2 0 0 1 2-2z" fill="#231f20"/><circle cx="47" cy="14" fill="#231f20" r="2"/><circle cx="44" cy="18" fill="#231f20" r="2"/><circle cx="50" cy="18" fill="#231f20" r="2"/><path d="m18 42a3 3 0 1 0 3 3 3 3 0 0 0 -3-3zm0 4a1 1 0 1 1 1-1 1 1 0 0 1 -1 1z" fill="#231f20"/><path d="m24 43a3 3 0 1 0 3-3 3 3 0 0 0 -3 3zm4 0a1 1 0 1 1 -1-1 1 1 0 0 1 1 1z" fill="#231f20"/></g></svg>